<svg width="172" height="33" viewBox="0 0 172 33" fill="none" xmlns="http://www.w3.org/2000/svg">
<path d="M13.1585 18.353C14.7583 17.3582 16.0165 11.4385 16.6517 6.65051C13.7896 5.16197 10.1898 6.83459 8.74761 7.85697C10.3424 16.7333 11.8626 19.1589 13.1585 18.353ZM13.1585 18.353L12.9612 25.4149M12.9612 25.4149L15.3159 27.7027L10.9424 27.4926L12.9612 25.4149Z" stroke="#C04728"/>
<path d="M4.11241 1.47677C4.52061 0.902172 5.54026 0.0977293 6.3532 1.47677C6.64503 1.47677 6.4748 4.99617 6.3532 6.75587C6.56165 9.1979 7.3607 11.1491 7.73417 11.8195C8.81809 12.6527 9.40174 14.2735 9.55807 14.9798C10.0792 16.445 9.86206 22.2939 9.68835 25.0352C9.64666 25.7535 9.37568 26.2682 9.2454 26.4358C5.80604 29.9193 1.24627 26.8667 1.11599 26.4358C1.01177 26.091 1.07256 25.1669 1.11599 24.7479C0.282203 20.2086 1.11599 15.722 1.6371 14.0461C3.34637 12.0637 4.10372 9.07819 4.26874 7.83324C4.49803 7.05753 4.26006 3.27238 4.11241 1.47677Z" fill="#C04728"/>
<path d="M4.11241 1.47677C4.52061 0.902172 5.54026 0.0977293 6.3532 1.47677M4.11241 1.47677C5.21717 2.91327 6.06659 2.07531 6.3532 1.47677M4.11241 1.47677C4.26006 3.27238 4.49803 7.05753 4.26874 7.83324C4.10372 9.07819 3.34637 12.0637 1.63711 14.0461C1.11599 15.722 0.282203 20.2086 1.11599 24.7479C1.07256 25.1669 1.01177 26.091 1.11599 26.4358C1.24627 26.8667 5.80604 29.9193 9.2454 26.4358C9.37568 26.2682 9.64666 25.7535 9.68835 25.0352C9.86206 22.2939 10.0792 16.445 9.55807 14.9798C9.40174 14.2735 8.81809 12.6527 7.73417 11.8195C7.3607 11.1491 6.56165 9.1979 6.3532 6.75587C6.4748 4.99617 6.64503 1.47677 6.3532 1.47677" stroke="#C04728"/>
<path d="M22.5132 20.1082C21.2812 20.1082 20.2572 20.6202 19.6492 21.8042V20.2842H18.8492V28.2842H19.6492V24.0602C19.6492 21.9002 20.8812 20.8762 22.4492 20.8762C23.9532 20.8762 24.8012 21.8362 24.8012 23.3082V28.2842H25.6172V23.3082C25.6172 21.3722 24.4172 20.1082 22.5132 20.1082ZM34.9204 20.2842V22.0922C34.2484 20.8922 33.0164 20.1082 31.4804 20.1082C29.2084 20.1082 27.3364 21.9162 27.3364 24.2842C27.3364 26.6522 29.2084 28.4602 31.4804 28.4602C33.0164 28.4602 34.2484 27.6762 34.9204 26.4762V28.2842H35.7364V20.2842H34.9204ZM31.5444 27.6922C29.6404 27.6922 28.1524 26.1882 28.1524 24.2842C28.1524 22.3802 29.6404 20.8762 31.5444 20.8762C33.4484 20.8762 34.9204 22.3802 34.9204 24.2842C34.9204 26.1882 33.4484 27.6922 31.5444 27.6922ZM42.2889 21.0682V20.2842H39.9049V18.0442L39.0889 18.2842V20.2842H37.3289V21.0682H39.0889V26.2682C39.0889 28.0922 40.1929 28.6042 42.2889 28.2842V27.5642C40.6569 27.7082 39.9049 27.6762 39.9049 26.2682V21.0682H42.2889ZM49.9686 20.2842V24.5082C49.9686 26.6682 48.7366 27.6922 47.1686 27.6922C45.6646 27.6922 44.8166 26.7322 44.8166 25.2602V20.2842H44.0006V25.2602C44.0006 27.1962 45.2006 28.4602 47.1046 28.4602C48.3366 28.4602 49.3606 27.9482 49.9686 26.7642V28.2842H50.7686V20.2842H49.9686ZM54.0398 21.8522V20.2842H53.2398V28.2842H54.0398V23.8362C54.0398 21.7882 55.3358 20.9402 56.7118 20.9402V20.1722C55.6238 20.1722 54.5838 20.5882 54.0398 21.8522ZM68.0456 20.2842L65.9176 27.2442L63.6776 20.2842H62.8456L60.6056 27.2442L58.4776 20.2842H57.6296L60.1576 28.2842H61.0376L63.2616 21.4682L65.4856 28.2842H66.3656L68.8936 20.2842H68.0456ZM71.0461 18.3482C71.3981 18.3482 71.6861 18.0602 71.6861 17.7082C71.6861 17.3722 71.3981 17.0842 71.0461 17.0842C70.6941 17.0842 70.4061 17.3722 70.4061 17.7082C70.4061 18.0602 70.6941 18.3482 71.0461 18.3482ZM70.6461 28.2842H71.4461V20.2842H70.6461V28.2842ZM77.5757 20.1082C76.3437 20.1082 75.3197 20.6202 74.7117 21.8042V20.2842H73.9117V28.2842H74.7117V24.0602C74.7117 21.9002 75.9437 20.8762 77.5117 20.8762C79.0157 20.8762 79.8637 21.8362 79.8637 23.3082V28.2842H80.6797V23.3082C80.6797 21.3722 79.4797 20.1082 77.5757 20.1082ZM86.5429 20.1082C84.0949 20.1082 82.3989 21.9322 82.3989 24.2842C82.3989 26.7002 84.1429 28.4602 86.6069 28.4602C88.1909 28.4602 89.4389 27.7402 90.0949 26.6522L89.3909 26.2362C88.9269 27.0842 87.9349 27.6922 86.6229 27.6922C84.7989 27.6922 83.4229 26.5082 83.2309 24.7002H90.4789C90.4789 24.5722 90.4949 24.4442 90.4949 24.3162C90.4949 22.1242 88.9749 20.1082 86.5429 20.1082ZM86.5429 20.8762C88.1109 20.8762 89.4869 21.9642 89.6629 23.9162H83.2309C83.3909 22.1402 84.7189 20.8762 86.5429 20.8762Z" fill="#C04728"/>
</svg>
